<?xml version="1.0" encoding="utf-8"?>
<!-- Generator: Adobe Illustrator 23.0.2, SVG Export Plug-In . SVG Version: 6.00 Build 0)  -->
<svg version="1.1" id="Layer_1" xmlns="http://www.w3.org/2000/svg" xmlns:xlink="http://www.w3.org/1999/xlink" x="0px" y="0px"
	 viewBox="0 0 545.4 465" style="enable-background:new 0 0 545.4 465;" xml:space="preserve">
<style type="text/css">
	.st0{fill:#FD9900;}
	.st1{fill:#FE9900;}
</style>
<g>
	<path class="st0" d="M121.1,365.1c-9.9,30.4-19.7,60.9-29.6,91.3c-1.1,3.5-1.9,7.2-6.1,8.4c-1.2-0.9-2.5-0.6-3.8-0.6
		c-25.1,0-50.1,0-75.2,0c-1.3,0-2.7-0.3-3.8,0.6c-4.2-2-2.4-5.4-1.5-8.1c3.7-11.5,7.7-22.9,11.7-34.3c10.9-31.4,21.9-62.8,32.8-94.2
		C71.2,254.6,97,181,122.4,107.4c4.7-13.6,9.9-27,13.6-41c2.3-8.6,2.5-17.4,3.1-26.2c0.2-2.5-0.6-5.5,2.6-6.8
		c1.2,1.2,2.8,0.8,4.3,0.8c35.6,0,71.2,0,106.8,0c3.4,3.8,4,9,5.6,13.5c22.8,63.9,45.4,127.8,68,191.7
		c19.1,54,38.2,107.9,57.3,161.9c6.7,18.9,13.4,37.7,20.1,56.6c0.9,2.6,2,5.1-1.3,6.9c-1.2-0.9-2.5-0.6-3.8-0.6
		c-27.7,0-55.5,0-83.2,0c-1.3,0-2.7-0.3-3.8,0.7c-3.2-0.6-3.9-3.3-4.8-5.8c-9.4-27.3-18.8-54.7-28.2-82c-1.5-4.4-3.1-8.7-4.7-13
		c-0.1-0.3-0.2-0.6-0.4-0.9c0-0.2,0.1-0.3,0.1-0.5c0-0.1-0.2-0.3-0.3-0.3c-0.8-0.1-1.6-0.2-2.4-0.2c-48.4,0-96.9,0-145.3,0
		c-1.4,0-3.1-0.5-4.1,1.1C121.5,363.9,121.3,364.5,121.1,365.1z M197,108.5c-4.2,19.9-9.3,38.2-15,56.3
		c-11.7,37.3-22.7,74.8-35.5,111.7c-0.9,2.5-0.4,3.1,2.2,3.1c32.3-0.1,64.6-0.1,97,0c2.8,0,3.6-0.8,2.7-3.5c-2.1-6.5-3.9-13-6-19.4
		c-11.2-34.8-22.5-69.6-32.9-104.7C205.4,137.9,201.4,123.7,197,108.5z"/>
	<path class="st1" d="M539.5,461.2c-1,0.9-0.8,2.8-2.6,3c-27.1,0-54.3,0-81.4-0.1c-1.3,0-2.7-0.3-3.8,0.8c-2.4-0.2-3.6-1.5-3.8-3.8
		c1.4-1.6,0.8-3.5,0.8-5.3c0-103.4,0-206.9,0-310.3c0-1.8,0.6-3.7-0.7-5.3c0.6-0.9,1.2-1.9,1.8-2.8c0.3,0,0.7,0,1,0
		c1.3,1.2,2.8,0.8,4.3,0.8c25.5,0,50.9,0,76.4,0c1.5,0,3,0.4,4.3-0.8c0.3,0,0.7-0.1,1-0.1c1,1.3,2,2.6,3,3.9c0,86.4,0,172.8,0,259.2
		C539.6,420.6,539.5,440.9,539.5,461.2z"/>
	<path class="st0" d="M494.9,0.1c29-0.9,50.4,18.5,50.5,51c0.1,31.2-21.3,52-52.5,52c-29.7,0-50-21.2-50.3-51.9
		C442.3,19.6,467.5-1.4,494.9,0.1z"/>
</g>
</svg>
