<?xml version="1.0" encoding="utf-8"?>
<!-- Generator: Adobe Illustrator 23.0.2, SVG Export Plug-In . SVG Version: 6.00 Build 0)  -->
<svg version="1.1" id="Layer_1" xmlns="http://www.w3.org/2000/svg" xmlns:xlink="http://www.w3.org/1999/xlink" x="0px" y="0px"
	 viewBox="0 0 270 268.4" style="enable-background:new 0 0 270 268.4;" xml:space="preserve">
<style type="text/css">
	.st0{fill:#0065A9;}
	.st1{fill:#007ACC;}
	.st2{fill:#1F9CF0;}
	.st3{fill-rule:evenodd;clip-rule:evenodd;fill:url(#SVGID_1_);}
</style>
<g transform="matrix(1.05404 0 0 1.05404 145.165 65.0823)">
	<g>
		<path class="st0" d="M109.4-34.8L56.6-60.2c-6.1-2.9-13.4-1.7-18.2,3.1l-172.7,157.4c-4.6,4.2-4.6,11.5,0,15.8l14.1,12.8
			c3.8,3.5,9.5,3.7,13.6,0.6L101.4-28.2c7-5.3,17-0.3,17,8.4v-0.6C118.4-26.5,114.9-32.1,109.4-34.8L109.4-34.8z"/>
		<path class="st1" d="M109.4,166l-52.7,25.4c-6.1,2.9-13.4,1.7-18.2-3.1L-134.2,30.8c-4.6-4.2-4.6-11.5,0-15.8l14.1-12.8
			c3.8-3.5,9.5-3.7,13.6-0.6l207.9,157.7c7,5.3,17,0.3,17-8.4v0.6C118.4,157.7,114.9,163.3,109.4,166L109.4,166z"/>
		<path class="st2" d="M56.6,191.4c-6.1,2.9-13.4,1.7-18.2-3.1c5.9,5.9,16,1.7,16-6.6V-50.4c0-8.4-10.1-12.5-16-6.6
			c4.8-4.8,12.1-6,18.2-3.1l52.7,25.4c5.5,2.7,9.1,8.3,9.1,14.4v172c0,6.1-3.5,11.8-9.1,14.4L56.6,191.4z"/>
	</g>
	
		<linearGradient id="SVGID_1_" gradientUnits="userSpaceOnUse" x1="-769.9509" y1="474.6829" x2="-768.9509" y2="474.6829" gradientTransform="matrix(0 268.4429 268.4429 0 -127434.9766 206626.0938)">
		<stop  offset="0" style="stop-color:#FFFFFF;stop-opacity:0.25"/>
		<stop  offset="1" style="stop-color:#FFFFFF;stop-opacity:0"/>
	</linearGradient>
	<path class="st3" d="M43.8,191.8c4,1.6,8.6,1.5,12.7-0.5l52.7-25.4c5.5-2.7,9.1-8.3,9.1-14.4v-172c0-6.1-3.5-11.8-9.1-14.4
		L56.5-60.2c-5.3-2.6-11.6-1.9-16.3,1.5c-0.7,0.5-1.3,1-1.9,1.6L-62.6,35l-43.9-33.4c-4.1-3.1-9.8-2.9-13.6,0.6L-134.2,15
		c-4.6,4.2-4.7,11.5,0,15.8l38.1,34.8l-38.1,34.8c-4.6,4.2-4.6,11.5,0,15.8l14.1,12.8c3.8,3.5,9.5,3.7,13.6,0.6l43.9-33.4
		l100.9,92.1C39.9,189.9,41.8,191.1,43.8,191.8L43.8,191.8z M54.3,7.5l-76.6,58.1l76.6,58.1V7.5z"/>
</g>
</svg>
