<?xml version="1.0" encoding="utf-8"?>
<!-- Generator: Adobe Illustrator 23.0.2, SVG Export Plug-In . SVG Version: 6.00 Build 0)  -->
<svg version="1.1" xmlns="http://www.w3.org/2000/svg" xmlns:xlink="http://www.w3.org/1999/xlink" x="0px" y="0px"
	 viewBox="0 0 619.6 164.8" style="enable-background:new 0 0 619.6 164.8;" xml:space="preserve">
<style type="text/css">
	.st0{fill:#FFFFFF;}
	.st1{fill:#6F8FFF;}
	.st2{enable-background:new    ;}
</style>
<g id="main__x2B__Artboard_2_xA0_Image_1_">
	<g>
		<g>
			<path class="st0" d="M0,1.6h34.5c7.8,0,14.7,1.4,20.6,4.3c6,2.8,10.6,6.9,13.9,12.1c3.3,5.3,5,11.5,5,18.6c0,7.1-1.7,13.3-5,18.6
				c-3.3,5.3-7.9,9.3-13.9,12.1c-6,2.8-12.8,4.3-20.6,4.3H0V1.6z M33.5,53.2c5.1,0,9.1-1.5,12.1-4.4c3-2.9,4.6-7,4.6-12.3
				c0-5.3-1.5-9.4-4.6-12.3c-3-2.9-7.1-4.4-12.1-4.4h-9.9v33.2H33.5z"/>
			<path class="st0" d="M140.8,53.8v17.8H82.6v-70h56.9v17.8h-33.7v8.2h29.6v17h-29.6v9.2H140.8z"/>
			<path class="st0" d="M159,71.3c-5.5-1.3-10-3-13.5-5.3l7.6-17.2c3.3,1.9,7.1,3.5,11.2,4.6c4.1,1.2,8.1,1.8,11.9,1.8
				c3.3,0,5.6-0.3,7-1c1.4-0.6,2.1-1.6,2.1-2.9c0-1.5-0.9-2.6-2.8-3.3c-1.8-0.7-4.8-1.5-9-2.4c-5.4-1.1-9.9-2.4-13.5-3.6
				c-3.6-1.3-6.7-3.4-9.4-6.4c-2.7-3-4-7-4-12c0-4.4,1.2-8.4,3.7-12c2.5-3.6,6.2-6.4,11.1-8.5C166.2,1,172.2,0,179.2,0
				c4.8,0,9.5,0.5,14.2,1.6c4.6,1,8.7,2.5,12.3,4.5l-7.1,17.1c-6.9-3.5-13.4-5.2-19.5-5.2c-6.1,0-9.1,1.5-9.1,4.4
				c0,1.4,0.9,2.5,2.7,3.2c1.8,0.7,4.8,1.4,8.9,2.3c5.3,1,9.8,2.1,13.5,3.4c3.7,1.3,6.9,3.4,9.5,6.4c2.7,2.9,4.1,6.9,4.1,12
				c0,4.4-1.2,8.4-3.7,12c-2.5,3.6-6.2,6.4-11,8.5c-4.9,2.1-10.9,3.1-17.9,3.1C170.2,73.2,164.5,72.6,159,71.3z"/>
			<path class="st0" d="M215.6,1.6h23.6v70h-23.6V1.6z"/>
			<path class="st0" d="M296.9,34.7h20.5v29.6c-4.1,2.9-8.9,5.1-14.4,6.6c-5.5,1.5-10.8,2.3-16.1,2.3c-7.5,0-14.2-1.6-20.1-4.6
				c-5.9-3.1-10.6-7.4-14-13c-3.4-5.6-5-11.9-5-19c0-7.1,1.7-13.4,5-19c3.4-5.6,8.1-9.9,14.1-13c6-3.1,12.9-4.6,20.5-4.6
				c6.9,0,13,1.1,18.5,3.5c5.4,2.3,10,5.6,13.5,10l-15.1,13.3c-4.4-5.1-9.6-7.7-15.7-7.7c-5.2,0-9.3,1.6-12.4,4.7
				c-3.1,3.1-4.6,7.4-4.6,12.8c0,5.3,1.5,9.5,4.5,12.7c3,3.2,7.1,4.8,12.2,4.8c3,0,5.9-0.6,8.6-1.7V34.7z"/>
			<path class="st0" d="M396.5,1.6v70h-19.4l-26.6-31.8v31.8h-23v-70h19.4l26.6,31.8V1.6H396.5z"/>
			<path class="st0" d="M466.1,53.8v17.8h-58.2v-70h56.9v17.8h-33.7v8.2h29.6v17h-29.6v9.2H466.1z"/>
			<path class="st0" d="M505.2,54h-6.4v17.6h-23.6v-70h33.7c6.5,0,12.1,1.1,16.9,3.2c4.8,2.1,8.5,5.2,11.1,9.2c2.6,4,3.9,8.7,3.9,14
				c0,5-1.1,9.4-3.4,13.1c-2.3,3.7-5.5,6.7-9.8,8.9l14.7,21.6h-25.2L505.2,54z M514.6,22c-1.6-1.4-4-2.1-7.2-2.1h-8.6v16.4h8.6
				c3.2,0,5.6-0.7,7.2-2.1c1.6-1.4,2.4-3.5,2.4-6.1S516.2,23.4,514.6,22z"/>
		</g>
		<g>
			<g>
				<path class="st1" d="M50.6,96.4c4.8,2.1,8.5,5.2,11.1,9.2c2.6,4,3.9,8.7,3.9,14c0,5.3-1.3,10-3.9,14c-2.6,4-6.3,7.1-11.1,9.2
					c-4.8,2.1-10.4,3.2-16.9,3.2H23.6v17.2H0v-70h33.7C40.2,93.2,45.8,94.3,50.6,96.4z M39.4,125.7c1.6-1.4,2.4-3.5,2.4-6.1
					s-0.8-4.6-2.4-6c-1.6-1.4-4-2.1-7.2-2.1h-8.6v16.4h8.6C35.4,127.8,37.8,127.1,39.4,125.7z"/>
				<path class="st1" d="M90.7,160.1c-6-3.1-10.7-7.5-14.1-13c-3.4-5.6-5.1-11.9-5.1-18.9s1.7-13.3,5.1-18.9
					c3.4-5.6,8.1-9.9,14.1-13c6-3.1,12.8-4.7,20.3-4.7c7.5,0,14.3,1.6,20.3,4.7c6,3.1,10.7,7.5,14.1,13c3.4,5.6,5.1,11.9,5.1,18.9
					s-1.7,13.3-5.1,18.9c-3.4,5.6-8.1,9.9-14.1,13s-12.8,4.7-20.3,4.7C103.5,164.8,96.7,163.2,90.7,160.1z M118.9,143.6
					c2.4-1.4,4.3-3.5,5.7-6.1c1.4-2.6,2.1-5.7,2.1-9.3c0-3.5-0.7-6.6-2.1-9.3c-1.4-2.6-3.3-4.7-5.7-6.1c-2.4-1.4-5-2.1-7.9-2.1
					c-2.9,0-5.6,0.7-8,2.1c-2.4,1.4-4.3,3.5-5.7,6.1c-1.4,2.6-2.1,5.7-2.1,9.3c0,3.5,0.7,6.6,2.1,9.3c1.4,2.6,3.3,4.7,5.7,6.1
					c2.4,1.4,5,2.1,8,2.1C113.9,145.7,116.6,145,118.9,143.6z"/>
				<path class="st1" d="M189.1,145.6h-6.4v17.6h-23.6v-70h33.7c6.5,0,12.1,1.1,16.9,3.2c4.8,2.1,8.5,5.2,11.1,9.2
					c2.6,4,3.9,8.7,3.9,14c0,5-1.1,9.4-3.4,13.1c-2.3,3.7-5.5,6.7-9.8,8.9l14.7,21.6H201L189.1,145.6z M198.5,113.6
					c-1.6-1.4-4-2.1-7.2-2.1h-8.6v16.4h8.6c3.2,0,5.6-0.7,7.2-2.1c1.6-1.4,2.4-3.5,2.4-6.1S200.1,115,198.5,113.6z"/>
				<path class="st1" d="M247.8,111.5h-20.5V93.2h64.6v18.3h-20.5v51.7h-23.6V111.5z"/>
				<path class="st1" d="M321.6,111v12h29.2v17.8h-29.2v22.4H298v-70h56.9V111H321.6z"/>
				<path class="st1" d="M378.3,160.1c-6-3.1-10.7-7.5-14.1-13c-3.4-5.6-5.1-11.9-5.1-18.9s1.7-13.3,5.1-18.9
					c3.4-5.6,8.1-9.9,14.1-13c6-3.1,12.8-4.7,20.3-4.7c7.5,0,14.3,1.6,20.3,4.7c6,3.1,10.7,7.5,14.1,13c3.4,5.6,5.1,11.9,5.1,18.9
					s-1.7,13.3-5.1,18.9c-3.4,5.6-8.1,9.9-14.1,13s-12.8,4.7-20.3,4.7C391.1,164.8,384.3,163.2,378.3,160.1z M406.5,143.6
					c2.4-1.4,4.3-3.5,5.7-6.1c1.4-2.6,2.1-5.7,2.1-9.3c0-3.5-0.7-6.6-2.1-9.3c-1.4-2.6-3.3-4.7-5.7-6.1c-2.4-1.4-5-2.1-7.9-2.1
					c-2.9,0-5.6,0.7-8,2.1c-2.4,1.4-4.3,3.5-5.7,6.1c-1.4,2.6-2.1,5.7-2.1,9.3c0,3.5,0.7,6.6,2.1,9.3c1.4,2.6,3.3,4.7,5.7,6.1
					c2.4,1.4,5,2.1,8,2.1C401.5,145.7,404.2,145,406.5,143.6z"/>
				<path class="st1" d="M446.7,93.2h23.6v51.7h31.6v18.3h-55.2V93.2z"/>
				<path class="st1" d="M508.4,93.2H532v70h-23.6V93.2z"/>
				<path class="st1" d="M559.8,160.1c-6-3.1-10.7-7.5-14.1-13c-3.4-5.6-5.1-11.9-5.1-18.9s1.7-13.3,5.1-18.9
					c3.4-5.6,8.1-9.9,14.1-13c6-3.1,12.8-4.7,20.3-4.7c7.5,0,14.3,1.6,20.3,4.7c6,3.1,10.7,7.5,14.1,13c3.4,5.6,5.1,11.9,5.1,18.9
					s-1.7,13.3-5.1,18.9c-3.4,5.6-8.1,9.9-14.1,13s-12.8,4.7-20.3,4.7C572.6,164.8,565.8,163.2,559.8,160.1z M588,143.6
					c2.4-1.4,4.3-3.5,5.7-6.1c1.4-2.6,2.1-5.7,2.1-9.3c0-3.5-0.7-6.6-2.1-9.3c-1.4-2.6-3.3-4.7-5.7-6.1c-2.4-1.4-5-2.1-7.9-2.1
					c-2.9,0-5.6,0.7-8,2.1c-2.4,1.4-4.3,3.5-5.7,6.1c-1.4,2.6-2.1,5.7-2.1,9.3c0,3.5,0.7,6.6,2.1,9.3c1.4,2.6,3.3,4.7,5.7,6.1
					c2.4,1.4,5,2.1,8,2.1C583,145.7,585.7,145,588,143.6z"/>
			</g>
		</g>
	</g>
</g>
<g id="Rectangle_11_copy_2__x2B__Layer_15_2_" class="st2">
	<defs>
		<path id="SVGID_1_" class="st2" d="M-1310.8,6030.5h-780c-5.5,0-10,4.5-10,10v919c0,5.5,4.5,10,10,10h780c5.5,0,10-4.5,10-10v-919
			C-1300.8,6035-1305.3,6030.5-1310.8,6030.5z"/>
	</defs>
	<clipPath id="SVGID_2_">
		<use xlink:href="#SVGID_1_"  style="overflow:visible;"/>
	</clipPath>
	<g style="clip-path:url(#SVGID_2_);">
		
			<image style="overflow:visible;" width="800" height="939" id="Rectangle_11_copy_2__x2B__Layer_15_xA0_Image" xlink:href="242AED34.png"  transform="matrix(1 0 0 1 -2100.8438 6030.5215)">
		</image>
	</g>
</g>
</svg>
