<?xml version="1.0" encoding="utf-8"?>
<!-- Generator: Adobe Illustrator 23.0.2, SVG Export Plug-In . SVG Version: 6.00 Build 0)  -->
<svg version="1.1" id="Layer_1" xmlns="http://www.w3.org/2000/svg" xmlns:xlink="http://www.w3.org/1999/xlink" x="0px" y="0px"
	 viewBox="0 0 625.3 253.7" style="enable-background:new 0 0 625.3 253.7;" xml:space="preserve">
<style type="text/css">
	.st0{fill:#FFFFFF;}
	.st1{fill:#00FFFC;}
	.st2{fill:#00FFA3;}
</style>
<g>
	<g>
		<path class="st0" d="M5.7,93h34.5c7.8,0,14.7,1.4,20.6,4.3c6,2.8,10.6,6.9,13.9,12.2c3.3,5.3,5,11.5,5,18.6c0,7.1-1.7,13.3-5,18.6
			c-3.3,5.3-7.9,9.3-13.9,12.1c-6,2.8-12.9,4.3-20.6,4.3H5.7V93z M39.2,144.6c5.1,0,9.1-1.5,12.1-4.4c3-2.9,4.5-7,4.5-12.3
			c0-5.3-1.5-9.3-4.5-12.3c-3-2.9-7.1-4.3-12.1-4.3h-9.9v33.2H39.2z"/>
		<path class="st0" d="M146.5,145.2V163H88.3V93h56.9v17.8h-33.7v8.2h29.6v17h-29.6v9.2H146.5z"/>
		<path class="st0" d="M164.7,162.7c-5.5-1.3-10-3-13.6-5.3l7.6-17.2c3.3,1.9,7.1,3.5,11.2,4.7c4.1,1.2,8.1,1.8,11.9,1.8
			c3.3,0,5.6-0.3,7-1c1.4-0.6,2.1-1.6,2.1-2.9c0-1.5-0.9-2.6-2.8-3.3c-1.8-0.7-4.9-1.5-9.1-2.4c-5.4-1.1-9.9-2.4-13.5-3.7
			c-3.6-1.3-6.7-3.4-9.4-6.4c-2.7-3-4-7-4-12c0-4.4,1.2-8.4,3.7-12c2.5-3.6,6.1-6.4,11-8.5c4.9-2.1,10.9-3.1,17.9-3.1
			c4.8,0,9.5,0.5,14.1,1.5c4.6,1,8.7,2.5,12.3,4.5l-7.1,17.1c-6.9-3.5-13.4-5.2-19.5-5.2c-6.1,0-9.1,1.5-9.1,4.4
			c0,1.4,0.9,2.5,2.7,3.2c1.8,0.7,4.8,1.5,8.9,2.3c5.3,1,9.8,2.2,13.5,3.5c3.7,1.3,6.9,3.4,9.6,6.3c2.7,2.9,4,6.9,4,12
			c0,4.4-1.2,8.4-3.7,12c-2.5,3.6-6.2,6.4-11.1,8.5s-10.9,3.2-17.9,3.2C175.9,164.6,170.2,164,164.7,162.7z"/>
		<path class="st0" d="M221.3,93h23.6v70h-23.6V93z"/>
		<path class="st0" d="M302.6,126.1h20.5v29.6c-4.1,2.9-8.9,5.1-14.4,6.6c-5.5,1.5-10.8,2.3-16.1,2.3c-7.5,0-14.2-1.6-20.1-4.7
			c-5.9-3.1-10.6-7.4-13.9-13c-3.4-5.6-5.1-11.9-5.1-19c0-7.1,1.7-13.4,5.1-19c3.4-5.6,8.1-9.9,14.1-13c6-3.1,12.9-4.6,20.5-4.6
			c6.9,0,13,1.1,18.5,3.5c5.4,2.3,10,5.6,13.6,10L310,118.2c-4.4-5.1-9.6-7.7-15.7-7.7c-5.2,0-9.3,1.6-12.4,4.7
			c-3.1,3.1-4.6,7.4-4.6,12.8c0,5.3,1.5,9.5,4.5,12.7c3,3.2,7.1,4.8,12.1,4.8c3,0,5.9-0.6,8.6-1.7V126.1z"/>
		<path class="st0" d="M402.2,93v70h-19.4l-26.6-31.8V163h-23V93h19.4l26.6,31.8V93H402.2z"/>
		<path class="st0" d="M471.8,145.2V163h-58.2V93h56.9v17.8h-33.7v8.2h29.6v17h-29.6v9.2H471.8z"/>
		<path class="st0" d="M510.9,145.4h-6.4V163h-23.6V93h33.7c6.5,0,12.1,1.1,16.9,3.2c4.8,2.1,8.5,5.2,11.1,9.2c2.6,4,3.9,8.7,3.9,14
			c0,5-1.1,9.4-3.4,13.1c-2.3,3.7-5.5,6.7-9.8,8.9L548,163h-25.2L510.9,145.4z M520.3,113.4c-1.6-1.4-4-2.2-7.2-2.2h-8.6v16.4h8.6
			c3.2,0,5.6-0.7,7.2-2.2c1.6-1.4,2.4-3.5,2.4-6C522.7,116.8,521.9,114.8,520.3,113.4z"/>
	</g>
	<g>
		<path class="st1" d="M60.2,53.3v18.3H4.1V57.1l25.3-23.4c2.2-2.1,3.7-3.8,4.4-5.3c0.7-1.5,1.1-2.9,1.1-4.3c0-1.7-0.6-3.1-1.8-4
			c-1.2-1-2.9-1.5-5.1-1.5c-2.1,0-4.1,0.6-6,1.7c-1.9,1.1-3.3,2.7-4.3,4.8L0,16.2c2.7-5,6.6-9,11.7-11.8C16.8,1.5,23,0,30.3,0
			C35.8,0,40.7,0.9,45,2.7c4.3,1.8,7.6,4.4,10,7.7c2.4,3.3,3.6,7.2,3.6,11.5c0,3.9-0.8,7.5-2.4,10.8c-1.6,3.4-4.8,7.2-9.6,11.5
			l-10,9.1H60.2z"/>
		<path class="st1" d="M80.2,68.9C75.5,66,71.7,61.8,69,56.3c-2.7-5.5-4.1-12-4.1-19.6C65,29,66.3,22.5,69,17
			c2.7-5.5,6.4-9.7,11.2-12.6C85,1.5,90.5,0,96.7,0c6.2,0,11.7,1.5,16.4,4.4c4.8,2.9,8.5,7.1,11.2,12.6s4,12,4,19.7
			c0,7.6-1.3,14.1-4,19.6s-6.4,9.7-11.2,12.6c-4.8,2.9-10.3,4.3-16.4,4.3C90.5,73.2,85,71.8,80.2,68.9z M104.7,36.6
			c0-11.8-2.7-17.7-8-17.7c-5.3,0-8,5.9-8,17.7s2.7,17.7,8,17.7C102,54.3,104.7,48.4,104.7,36.6z"/>
		<path class="st1" d="M189.2,53.3v18.3h-56.1V57.1l25.3-23.4c2.2-2.1,3.7-3.8,4.4-5.3c0.7-1.5,1.1-2.9,1.1-4.3c0-1.7-0.6-3.1-1.8-4
			c-1.2-1-2.9-1.5-5.1-1.5c-2.1,0-4.1,0.6-6,1.7c-1.9,1.1-3.3,2.7-4.3,4.8L129,16.2c2.7-5,6.6-9,11.7-11.8C145.8,1.5,152,0,159.3,0
			c5.5,0,10.4,0.9,14.7,2.7c4.3,1.8,7.6,4.4,10,7.7c2.4,3.3,3.6,7.2,3.6,11.5c0,3.9-0.8,7.5-2.4,10.8c-1.6,3.4-4.8,7.2-9.6,11.5
			l-10,9.1H189.2z"/>
		<path class="st1" d="M243.9,29.1c3.7,1.9,6.6,4.5,8.8,7.9c2.2,3.4,3.3,7.3,3.3,11.7c0,4.9-1.3,9.2-3.8,12.9
			c-2.5,3.7-5.9,6.6-10.3,8.6c-4.3,2-9.1,3-14.4,3c-6.7,0-12.6-1.3-17.6-3.9c-5-2.6-9-6.5-11.8-11.6c-2.8-5.1-4.2-11.4-4.2-18.9
			c0-8,1.6-14.9,4.9-20.8c3.2-5.9,7.8-10.3,13.6-13.4c5.8-3.1,12.6-4.6,20.4-4.6c4.2,0,8.2,0.5,12,1.5c3.8,1,7,2.3,9.7,4L246,22
			c-3.5-2.5-7.7-3.7-12.7-3.7c-4.1,0-7.4,1-10.1,3c-2.6,2-4.4,5-5.1,8.8c3.7-2.6,8.3-3.9,13.9-3.9C236.3,26.3,240.2,27.2,243.9,29.1
			z M231.2,55c1.3-1.3,2-3,2-5.2c0-2.2-0.7-4-2-5.3c-1.3-1.3-3.1-2-5.2-2c-2.1,0-3.9,0.6-5.2,2c-1.3,1.3-2,3-2,5.3
			c0,2.2,0.7,3.9,2,5.2c1.3,1.3,3.1,1.9,5.2,1.9C228.1,56.9,229.9,56.3,231.2,55z"/>
	</g>
	<g>
		<path class="st2" d="M56.3,185.3c4.8,2.1,8.5,5.2,11.1,9.2s3.9,8.7,3.9,14c0,5.3-1.3,10-3.9,14s-6.3,7.1-11.1,9.2
			c-4.8,2.1-10.4,3.2-16.9,3.2H29.3v17.2H5.7v-70h33.7C45.9,182.1,51.5,183.2,56.3,185.3z M45.1,214.6c1.6-1.4,2.4-3.5,2.4-6
			c0-2.6-0.8-4.6-2.4-6s-4-2.2-7.2-2.2h-8.6v16.4h8.6C41.1,216.7,43.5,216,45.1,214.6z"/>
		<path class="st2" d="M96.4,249c-6-3.1-10.7-7.5-14.1-13s-5.1-11.9-5.1-18.9s1.7-13.3,5.1-18.8c3.4-5.6,8.1-9.9,14.1-13
			c6-3.1,12.8-4.7,20.3-4.7c7.5,0,14.3,1.6,20.3,4.7c6,3.1,10.7,7.5,14.1,13c3.4,5.6,5.1,11.8,5.1,18.8s-1.7,13.3-5.1,18.9
			c-3.4,5.6-8.1,9.9-14.1,13s-12.8,4.7-20.3,4.7C109.2,253.7,102.4,252.2,96.4,249z M124.7,232.5c2.4-1.4,4.3-3.5,5.6-6.1
			c1.4-2.6,2.1-5.7,2.1-9.3c0-3.5-0.7-6.6-2.1-9.3c-1.4-2.6-3.3-4.7-5.6-6.1c-2.4-1.4-5-2.2-8-2.2c-2.9,0-5.6,0.7-7.9,2.2
			c-2.4,1.4-4.3,3.5-5.7,6.1c-1.4,2.6-2.1,5.7-2.1,9.3c0,3.5,0.7,6.6,2.1,9.3c1.4,2.6,3.3,4.7,5.7,6.1c2.4,1.4,5,2.1,7.9,2.1
			C119.6,234.6,122.3,233.9,124.7,232.5z"/>
		<path class="st2" d="M194.8,234.5h-6.4v17.6h-23.6v-70h33.7c6.5,0,12.1,1.1,16.9,3.2c4.8,2.1,8.5,5.2,11.1,9.2s3.9,8.7,3.9,14
			c0,5-1.1,9.4-3.4,13.1c-2.3,3.7-5.5,6.7-9.8,8.9l14.7,21.6h-25.2L194.8,234.5z M204.2,202.5c-1.6-1.4-4-2.2-7.2-2.2h-8.6v16.4h8.6
			c3.2,0,5.6-0.7,7.2-2.2c1.6-1.4,2.4-3.5,2.4-6C206.6,205.9,205.8,203.9,204.2,202.5z"/>
		<path class="st2" d="M253.5,200.4H233v-18.3h64.6v18.3h-20.5v51.7h-23.6V200.4z"/>
		<path class="st2" d="M327.3,199.9v12h29.2v17.8h-29.2v22.4h-23.6v-70h56.9v17.8H327.3z"/>
		<path class="st2" d="M384,249c-6-3.1-10.7-7.5-14.1-13s-5.1-11.9-5.1-18.9s1.7-13.3,5.1-18.8c3.4-5.6,8.1-9.9,14.1-13
			c6-3.1,12.8-4.7,20.3-4.7c7.5,0,14.3,1.6,20.3,4.7c6,3.1,10.7,7.5,14.1,13c3.4,5.6,5.1,11.8,5.1,18.8s-1.7,13.3-5.1,18.9
			c-3.4,5.6-8.1,9.9-14.1,13s-12.8,4.7-20.3,4.7C396.8,253.7,390,252.2,384,249z M412.3,232.5c2.4-1.4,4.3-3.5,5.7-6.1
			c1.4-2.6,2.1-5.7,2.1-9.3c0-3.5-0.7-6.6-2.1-9.3c-1.4-2.6-3.3-4.7-5.7-6.1c-2.4-1.4-5-2.2-7.9-2.2c-2.9,0-5.6,0.7-8,2.2
			c-2.4,1.4-4.3,3.5-5.7,6.1c-1.4,2.6-2.1,5.7-2.1,9.3c0,3.5,0.7,6.6,2.1,9.3c1.4,2.6,3.3,4.7,5.7,6.1c2.4,1.4,5,2.1,8,2.1
			C407.2,234.6,409.9,233.9,412.3,232.5z"/>
		<path class="st2" d="M452.4,182.1H476v51.7h31.6v18.3h-55.2V182.1z"/>
		<path class="st2" d="M514.1,182.1h23.6v70h-23.6V182.1z"/>
		<path class="st2" d="M565.5,249c-6-3.1-10.7-7.5-14.1-13s-5.1-11.9-5.1-18.9s1.7-13.3,5.1-18.8c3.4-5.6,8.1-9.9,14.1-13
			c6-3.1,12.8-4.7,20.3-4.7c7.5,0,14.3,1.6,20.3,4.7c6,3.1,10.7,7.5,14.1,13c3.4,5.6,5.1,11.8,5.1,18.8s-1.7,13.3-5.1,18.9
			c-3.4,5.6-8.1,9.9-14.1,13s-12.8,4.7-20.3,4.7C578.3,253.7,571.5,252.2,565.5,249z M593.7,232.5c2.4-1.4,4.3-3.5,5.7-6.1
			c1.4-2.6,2.1-5.7,2.1-9.3c0-3.5-0.7-6.6-2.1-9.3c-1.4-2.6-3.3-4.7-5.7-6.1c-2.4-1.4-5-2.2-7.9-2.2c-2.9,0-5.6,0.7-8,2.2
			c-2.4,1.4-4.3,3.5-5.7,6.1c-1.4,2.6-2.1,5.7-2.1,9.3c0,3.5,0.7,6.6,2.1,9.3c1.4,2.6,3.3,4.7,5.7,6.1c2.4,1.4,5,2.1,8,2.1
			C588.7,234.6,591.4,233.9,593.7,232.5z"/>
	</g>
</g>
</svg>
